<?xml version="1.0" standalone="no"?>
<!DOCTYPE svg PUBLIC "-//W3C//DTD SVG 20010904//EN"
 "http://www.w3.org/TR/2001/REC-SVG-20010904/DTD/svg10.dtd">
<svg version="1.0" xmlns="http://www.w3.org/2000/svg"
 width="1024.000000pt" height="1024.000000pt" viewBox="0 0 1024.000000 1024.000000"
 preserveAspectRatio="xMidYMid meet">

<g transform="translate(0.000000,1024.000000) scale(0.100000,-0.100000)"
fill="#000000" stroke="none">
<path d="M5888 7810 l-3 -381 -535 -2 c-504 -2 -537 -3 -566 -21 -68 -41 -64
37 -64 -1115 l0 -1041 -270 0 -270 0 0 375 0 375 -900 0 -899 0 -3 -872 c-2
-480 -2 -876 0 -880 2 -5 408 -8 903 -8 l899 0 0 375 0 375 270 0 270 0 0
-1041 c0 -941 2 -1044 16 -1068 34 -58 14 -56 604 -61 l545 -5 3 -382 2 -383
895 0 895 0 0 895 0 895 -895 0 -895 0 -2 -382 -3 -383 -452 -3 -451 -2 -7 92
c-3 51 -4 856 -1 1788 3 932 5 1813 5 1958 l1 262 453 -2 452 -3 3 -382 2
-383 895 0 895 0 0 895 0 895 -895 0 -895 0 -2 -380z"/>
</g>
</svg>
